<svg width="32" height="32" viewBox="0 -6 32 32" xmlns="http://www.w3.org/2000/svg" fill="none">
 <defs>
  <clipPath id="a">
   <rect id="svg_1" fill="white" height="32" width="32"/>
  </clipPath>
 </defs>
 <g transform="scale(0.6)">
  <title>Layer 1</title>
  <g id="svg_2" clip-path="url(#a)">
   <path id="svg_3" fill="#FFC44D" d="m24,31l-16,0l-7,0c0,0 0.69,-3.62 1,-5c0.21,-0.92 1,-3 9,-4c0,0 1,3 5,3c4,0 5,-3 5,-3c8,1 8.79,3.02 9,4c0.29,1.38 1,5 1,5l-7,0z"/>
   <path id="svg_4" fill="#668077" d="m23,8l-1,0l-12,0l-1,0c0,-3.87 3.13,-7 7,-7c3.87,0 7,3.13 7,7z"/>
   <path id="svg_5" fill="#FFE6EA" d="m22,8l0,3c0,3.87 -3,7 -6,7c-3,0 -6,-3.13 -6,-7l0,-3l12,0z"/>
   <path id="svg_6" stroke-linejoin="round" stroke-linecap="round" stroke-width="2" stroke="#000000" d="m1,31c0,0 0.687,-3.621 1,-5c0.208,-0.917 1,-3 9,-4c0,0 1,3 5,3c4,0 5,-3 5,-3c8,1 8.792,3.021 9,4c0.294,1.384 1,5 1,5m-21,-20c0,3.866 3,7 6,7c3,0 6,-3.134 6,-7m-14,19l0,1m16,-1l0,1m-18,-23l17,0c0,-3.866 -3.134,-7 -7,-7c-3.866,0 -7,3.134 -7,7"/>
  </g>
 </g>
</svg>
